<?xml version="1.0" encoding="UTF-8" standalone="no"?>
<!-- Created with Inkscape (http://www.inkscape.org/) -->

<svg
   width="210mm"
   height="297mm"
   viewBox="0 0 210 297"
   version="1.1"
   id="svg5"
   sodipodi:docname="classical_resonator.svg"
   inkscape:version="1.2 (dc2aeda, 2022-05-15)"
   inkscape:export-filename="classical_resonator.png"
   inkscape:export-xdpi="350"
   inkscape:export-ydpi="350"
   xmlns:inkscape="http://www.inkscape.org/namespaces/inkscape"
   xmlns:sodipodi="http://sodipodi.sourceforge.net/DTD/sodipodi-0.dtd"
   xmlns="http://www.w3.org/2000/svg"
   xmlns:svg="http://www.w3.org/2000/svg">
  <sodipodi:namedview
     id="namedview7"
     pagecolor="#ffffff"
     bordercolor="#111111"
     borderopacity="1"
     inkscape:showpageshadow="0"
     inkscape:pageopacity="0"
     inkscape:pagecheckerboard="1"
     inkscape:deskcolor="#d1d1d1"
     inkscape:document-units="mm"
     showgrid="false"
     inkscape:zoom="1.6435009"
     inkscape:cx="216.915"
     inkscape:cy="144.50859"
     inkscape:window-width="1440"
     inkscape:window-height="847"
     inkscape:window-x="0"
     inkscape:window-y="25"
     inkscape:window-maximized="0"
     inkscape:current-layer="layer1" />
  <defs
     id="defs2">
    <marker
       style="overflow:visible"
       id="marker2621"
       refX="0"
       refY="0"
       orient="auto-start-reverse"
       inkscape:stockid="Arrow2"
       markerWidth="7.6999998"
       markerHeight="5.5999999"
       viewBox="0 0 7.7 5.6"
       inkscape:isstock="true"
       inkscape:collect="always"
       preserveAspectRatio="xMidYMid">
      <path
         transform="scale(0.7)"
         d="M -2,-4 9,0 -2,4 c 2,-2.33 2,-5.66 0,-8 z"
         style="fill:context-stroke;fill-rule:evenodd;stroke:none"
         id="path2619" />
    </marker>
    <marker
       style="overflow:visible"
       id="marker1884"
       refX="0"
       refY="0"
       orient="auto-start-reverse"
       inkscape:stockid="Arrow2"
       markerWidth="7.6999998"
       markerHeight="5.5999999"
       viewBox="0 0 7.7 5.6"
       inkscape:isstock="true"
       inkscape:collect="always"
       preserveAspectRatio="xMidYMid">
      <path
         transform="scale(0.7)"
         d="M -2,-4 9,0 -2,4 c 2,-2.33 2,-5.66 0,-8 z"
         style="fill:context-stroke;fill-rule:evenodd;stroke:none"
         id="path1882" />
    </marker>
    <marker
       style="overflow:visible"
       id="marker1802"
       refX="0"
       refY="0"
       orient="auto-start-reverse"
       inkscape:stockid="Arrow2"
       markerWidth="7.6999998"
       markerHeight="5.5999999"
       viewBox="0 0 7.7 5.6"
       inkscape:isstock="true"
       inkscape:collect="always"
       preserveAspectRatio="xMidYMid">
      <path
         transform="scale(0.7)"
         d="M -2,-4 9,0 -2,4 c 2,-2.33 2,-5.66 0,-8 z"
         style="fill:context-stroke;fill-rule:evenodd;stroke:none"
         id="path1800" />
    </marker>
    <marker
       style="overflow:visible"
       id="marker1738"
       refX="0"
       refY="0"
       orient="auto-start-reverse"
       inkscape:stockid="Arrow2"
       markerWidth="7.6999998"
       markerHeight="5.5999999"
       viewBox="0 0 7.7 5.6"
       inkscape:isstock="true"
       inkscape:collect="always"
       preserveAspectRatio="xMidYMid">
      <path
         transform="scale(0.7)"
         d="M -2,-4 9,0 -2,4 c 2,-2.33 2,-5.66 0,-8 z"
         style="fill:context-stroke;fill-rule:evenodd;stroke:none"
         id="path1736" />
    </marker>
    <marker
       style="overflow:visible"
       id="marker1692"
       refX="0"
       refY="0"
       orient="auto-start-reverse"
       inkscape:stockid="Arrow2"
       markerWidth="7.6999998"
       markerHeight="5.5999999"
       viewBox="0 0 7.7 5.6"
       inkscape:isstock="true"
       inkscape:collect="always"
       preserveAspectRatio="xMidYMid">
      <path
         transform="scale(0.7)"
         d="M -2,-4 9,0 -2,4 c 2,-2.33 2,-5.66 0,-8 z"
         style="fill:context-stroke;fill-rule:evenodd;stroke:none"
         id="path1690" />
    </marker>
    <marker
       style="overflow:visible"
       id="Arrow2"
       refX="0"
       refY="0"
       orient="auto-start-reverse"
       inkscape:stockid="Arrow2"
       markerWidth="7.6999998"
       markerHeight="5.5999999"
       viewBox="0 0 7.7 5.6"
       inkscape:isstock="true"
       inkscape:collect="always"
       preserveAspectRatio="xMidYMid">
      <path
         transform="scale(0.7)"
         d="M -2,-4 9,0 -2,4 c 2,-2.33 2,-5.66 0,-8 z"
         style="fill:context-stroke;fill-rule:evenodd;stroke:none"
         id="arrow2L" />
    </marker>
  </defs>
  <g
     inkscape:label="Layer 1"
     inkscape:groupmode="layer"
     id="layer1">
    <path
       style="fill:#000080;stroke:#000080;stroke-width:0.396875;stroke-linecap:butt;stroke-linejoin:miter;stroke-dasharray:none;stroke-opacity:1"
       d="M 48.033881,9.8747896 V 48.217565"
       id="path195" />
    <path
       style="fill:#000080;stroke:#000080;stroke-width:0.396875;stroke-linecap:butt;stroke-linejoin:miter;stroke-dasharray:none;stroke-opacity:1"
       d="M 82.743227,9.6605416 V 48.003317"
       id="path195-9" />
    <path
       style="fill:none;stroke:#000000;stroke-width:0.264583px;stroke-linecap:butt;stroke-linejoin:miter;stroke-opacity:1;marker-end:url(#Arrow2)"
       d="m 97.83611,17.111525 -53.90894,0"
       id="path932"
       sodipodi:nodetypes="cc" />
    <path
       style="fill:none;stroke:#000000;stroke-width:0.264583px;stroke-linecap:butt;stroke-linejoin:miter;stroke-opacity:1;marker-start:url(#marker1692)"
       d="M 87.183028,21.772036 H 50.654819"
       id="path932-7"
       sodipodi:nodetypes="cc" />
    <path
       style="fill:none;stroke:#000000;stroke-width:0.264583;stroke-dasharray:none;stop-color:#000000"
       id="path986"
       sodipodi:type="arc"
       sodipodi:cx="19.435593"
       sodipodi:cy="-50.702038"
       sodipodi:rx="2.3303375"
       sodipodi:ry="2.3303375"
       sodipodi:start="0"
       sodipodi:end="3.1415927"
       sodipodi:open="true"
       sodipodi:arc-type="arc"
       d="m 21.76593,-50.702038 a 2.3303375,2.3303375 0 0 1 -1.165169,2.018132 2.3303375,2.3303375 0 0 1 -2.330337,0 2.3303375,2.3303375 0 0 1 -1.165169,-2.018132"
       transform="rotate(90)" />
    <path
       style="fill:none;stroke:#000000;stroke-width:0.264583px;stroke-linecap:butt;stroke-linejoin:miter;stroke-opacity:1;marker-end:url(#Arrow2)"
       d="m 80.172105,26.432548 -36.289587,0"
       id="path932-7-0"
       sodipodi:nodetypes="cc" />
    <path
       style="fill:none;stroke:#000000;stroke-width:0.264583px;stroke-linecap:butt;stroke-linejoin:miter;stroke-opacity:1;marker-start:url(#marker1738)"
       d="m 87.072059,31.093059 -36.41724,0"
       id="path932-0"
       sodipodi:nodetypes="cc" />
    <path
       style="fill:none;stroke:#000000;stroke-width:0.264583px;stroke-linecap:butt;stroke-linejoin:miter;stroke-opacity:1;marker-end:url(#Arrow2)"
       d="m 80.172105,35.75357 -36.320529,0"
       id="path932-7-5"
       sodipodi:nodetypes="cc" />
    <path
       style="fill:none;stroke:#000000;stroke-width:0.264583px;stroke-linecap:butt;stroke-linejoin:miter;stroke-opacity:1;marker-start:url(#marker1802)"
       d="m 87.071461,40.414081 -36.416642,0"
       id="path932-7-0-6"
       sodipodi:nodetypes="cc" />
    <path
       style="fill:none;stroke:#000000;stroke-width:0.264583px;stroke-linecap:butt;stroke-linejoin:miter;stroke-opacity:1;marker-end:url(#marker1884)"
       d="m 80.172105,45.074592 -7.426402,0"
       id="path932-78"
       sodipodi:nodetypes="cc" />
    <path
       style="fill:none;stroke:#000000;stroke-width:0.264583;stroke-dasharray:none;stop-color:#000000"
       id="path986-7"
       sodipodi:type="arc"
       sodipodi:cx="38.086548"
       sodipodi:cy="-50.676491"
       sodipodi:rx="2.3303375"
       sodipodi:ry="2.3303375"
       sodipodi:start="0"
       sodipodi:end="3.1415927"
       sodipodi:open="true"
       sodipodi:arc-type="arc"
       d="m 40.416885,-50.676491 a 2.3303375,2.3303375 0 0 1 -1.165168,2.018132 2.3303375,2.3303375 0 0 1 -2.330338,0 2.3303375,2.3303375 0 0 1 -1.165169,-2.018132"
       transform="rotate(90)" />
    <path
       style="fill:none;stroke:#000000;stroke-width:0.264583;stroke-dasharray:none;stop-color:#000000"
       id="path986-9"
       sodipodi:type="arc"
       sodipodi:cx="28.772995"
       sodipodi:cy="-50.688885"
       sodipodi:rx="2.3303375"
       sodipodi:ry="2.3303375"
       sodipodi:start="0"
       sodipodi:end="3.1415927"
       sodipodi:open="true"
       sodipodi:arc-type="arc"
       d="m 31.103333,-50.688885 a 2.3303375,2.3303375 0 0 1 -1.165169,2.018132 2.3303375,2.3303375 0 0 1 -2.330338,0 2.3303375,2.3303375 0 0 1 -1.165169,-2.018132"
       transform="rotate(90)" />
    <path
       style="fill:none;stroke:#000000;stroke-width:0.264583;stroke-dasharray:none;stop-color:#000000"
       id="path986-3"
       sodipodi:type="arc"
       sodipodi:cx="24.113873"
       sodipodi:cy="80.099861"
       sodipodi:rx="2.3303375"
       sodipodi:ry="2.3303375"
       sodipodi:start="0"
       sodipodi:end="3.1415927"
       sodipodi:open="true"
       sodipodi:arc-type="arc"
       d="m 26.44421,80.099861 a 2.3303375,2.3303375 0 0 1 -1.165169,2.018132 2.3303375,2.3303375 0 0 1 -2.330337,0 2.3303375,2.3303375 0 0 1 -1.165169,-2.018132"
       transform="matrix(0,1,1,0,0,0)" />
    <path
       style="fill:none;stroke:#000000;stroke-width:0.264583px;stroke-linecap:butt;stroke-linejoin:miter;stroke-opacity:1;marker-end:url(#Arrow2)"
       d="m 85.325589,12.445204 1.827399,0"
       id="path932-7-0-8"
       sodipodi:nodetypes="cc" />
    <path
       style="fill:none;stroke:#000000;stroke-width:0.264583;stroke-dasharray:none;stop-color:#000000"
       id="path986-3-9"
       sodipodi:type="arc"
       sodipodi:cx="-14.763879"
       sodipodi:cy="-85.397827"
       sodipodi:rx="2.3303375"
       sodipodi:ry="2.3303375"
       sodipodi:start="0"
       sodipodi:end="3.1415927"
       sodipodi:open="true"
       sodipodi:arc-type="arc"
       d="m -12.433541,-85.397827 a 2.3303375,2.3303375 0 0 1 -1.165169,2.018131 2.3303375,2.3303375 0 0 1 -2.330338,0 2.3303375,2.3303375 0 0 1 -1.165168,-2.018131"
       transform="matrix(0,-1,-1,0,0,0)" />
    <path
       style="fill:none;stroke:#000000;stroke-width:0.264583;stroke-dasharray:none;stop-color:#000000"
       id="path986-7-3"
       sodipodi:type="arc"
       sodipodi:cx="42.764824"
       sodipodi:cy="80.125435"
       sodipodi:rx="2.3303375"
       sodipodi:ry="2.3303375"
       sodipodi:start="0"
       sodipodi:end="3.1415927"
       sodipodi:open="true"
       sodipodi:arc-type="arc"
       d="m 45.095161,80.125435 a 2.3303375,2.3303375 0 0 1 -1.165168,2.018131 2.3303375,2.3303375 0 0 1 -2.330338,0 2.3303375,2.3303375 0 0 1 -1.165169,-2.018131"
       transform="matrix(0,1,1,0,0,0)" />
    <path
       style="fill:none;stroke:#000000;stroke-width:0.264583;stroke-dasharray:none;stop-color:#000000"
       id="path986-9-5"
       sodipodi:type="arc"
       sodipodi:cx="33.451275"
       sodipodi:cy="80.113022"
       sodipodi:rx="2.3303375"
       sodipodi:ry="2.3303375"
       sodipodi:start="0"
       sodipodi:end="3.1415927"
       sodipodi:open="true"
       sodipodi:arc-type="arc"
       d="m 35.781612,80.113022 a 2.3303375,2.3303375 0 0 1 -1.165168,2.018131 2.3303375,2.3303375 0 0 1 -2.330338,0 2.3303375,2.3303375 0 0 1 -1.165169,-2.018131"
       transform="matrix(0,1,1,0,0,0)" />
    <text
       xml:space="preserve"
       style="font-size:2.82222px;line-height:1.25;font-family:'Helvetica Neue';-inkscape-font-specification:'Helvetica Neue, Normal';fill:#ff0000;stroke-width:0.264583"
       x="83.631134"
       y="15.879329"
       id="text2416"><tspan
         sodipodi:role="line"
         style="font-size:2.82222px;fill:#ff0000;stroke-width:0.264583"
         id="tspan2418"
         x="83.631134"
         y="15.879329">＋</tspan></text>
    <text
       xml:space="preserve"
       style="font-size:2.82222px;line-height:1.25;font-family:'Helvetica Neue';-inkscape-font-specification:'Helvetica Neue, Normal';fill:#ff0000;stroke-width:0.264583"
       x="49.013638"
       y="20.464491"
       id="text2416-3"><tspan
         sodipodi:role="line"
         style="font-size:2.82222px;fill:#ff0000;stroke-width:0.264583"
         id="tspan2418-0"
         x="49.013638"
         y="20.464491">＋</tspan></text>
    <text
       xml:space="preserve"
       style="font-size:2.82222px;line-height:1.25;font-family:'Helvetica Neue';-inkscape-font-specification:'Helvetica Neue, Normal';fill:#ff0000;stroke-width:0.264583"
       x="49.013638"
       y="29.855156"
       id="text2416-1"><tspan
         sodipodi:role="line"
         style="font-size:2.82222px;fill:#ff0000;stroke-width:0.264583"
         id="tspan2418-9"
         x="49.013638"
         y="29.855156">＋</tspan></text>
    <text
       xml:space="preserve"
       style="font-size:2.82222px;line-height:1.25;font-family:'Helvetica Neue';-inkscape-font-specification:'Helvetica Neue, Normal';fill:#ff0000;stroke-width:0.264583"
       x="49.013638"
       y="39.245823"
       id="text2416-8"><tspan
         sodipodi:role="line"
         style="font-size:2.82222px;fill:#ff0000;stroke-width:0.264583"
         id="tspan2418-6"
         x="49.013638"
         y="39.245823">＋</tspan></text>
    <text
       xml:space="preserve"
       style="font-size:2.82222px;line-height:1.25;font-family:'Helvetica Neue';-inkscape-font-specification:'Helvetica Neue, Normal';fill:#0000ff;stroke-width:0.264583"
       x="78.175873"
       y="25.204159"
       id="text2416-3-1"><tspan
         sodipodi:role="line"
         style="font-size:2.82222px;fill:#0000ff;stroke-width:0.264583"
         id="tspan2418-0-6"
         x="78.175873"
         y="25.204159">ー</tspan></text>
    <text
       xml:space="preserve"
       style="font-size:2.82222px;line-height:1.25;font-family:'Helvetica Neue';-inkscape-font-specification:'Helvetica Neue, Normal';fill:#0000ff;stroke-width:0.264583"
       x="78.175873"
       y="34.594826"
       id="text2416-3-1-9"><tspan
         sodipodi:role="line"
         style="font-size:2.82222px;fill:#0000ff;stroke-width:0.264583"
         id="tspan2418-0-6-3"
         x="78.175873"
         y="34.594826">ー</tspan></text>
    <text
       xml:space="preserve"
       style="font-size:2.82222px;line-height:1.25;font-family:'Helvetica Neue';-inkscape-font-specification:'Helvetica Neue, Normal';fill:#0000ff;stroke-width:0.264583"
       x="78.175873"
       y="43.985489"
       id="text2416-3-1-96"><tspan
         sodipodi:role="line"
         style="font-size:2.82222px;fill:#0000ff;stroke-width:0.264583"
         id="tspan2418-0-6-6"
         x="78.175873"
         y="43.985489">ー</tspan></text>
    <text
       xml:space="preserve"
       style="font-size:3.52778px;line-height:1.25;font-family:'Helvetica Neue';-inkscape-font-specification:'Helvetica Neue, Normal';stroke-width:0.264583"
       x="80.650452"
       y="51.805515"
       id="text2588"><tspan
         sodipodi:role="line"
         id="tspan2586"
         style="font-size:3.52778px;stroke-width:0.264583"
         x="80.650452"
         y="51.805515">M1</tspan></text>
    <text
       xml:space="preserve"
       style="font-size:3.52778px;line-height:1.25;font-family:'Helvetica Neue';-inkscape-font-specification:'Helvetica Neue, Normal';stroke-width:0.264583"
       x="45.692585"
       y="51.805515"
       id="text2588-4"><tspan
         sodipodi:role="line"
         id="tspan2586-7"
         style="font-size:3.52778px;stroke-width:0.264583"
         x="45.692585"
         y="51.805515">M2</tspan></text>
    <path
       style="fill:none;stroke:#000000;stroke-width:0.185208;stroke-linecap:butt;stroke-linejoin:miter;stroke-dasharray:none;stroke-opacity:1;marker-start:url(#marker2621);marker-end:url(#marker2621)"
       d="M 49.267159,54.574628 H 81.688872"
       id="path2617" />
    <g
       id="g550"
       transform="translate(10.349413,-23.504195)">
      <path
         d="m 91.91805,41.14029 c 0.007,-0.01761 0.01759,-0.04222 0.01759,-0.04925 0,-0.0035 0,-0.0387 -0.04221,-0.0387 -0.03166,0 -0.0387,0.02112 -0.04572,0.04221 -0.228683,0.520663 -0.358842,0.756353 -0.960402,0.756353 h -0.513602 c -0.04925,0 -0.05629,0 -0.07741,-0.0035 -0.03517,-0.0035 -0.04572,-0.007 -0.04572,-0.03517 0,-0.01055 0,-0.01759 0.01759,-0.0809 l 0.239224,-0.960402 h 0.348259 c 0.299023,0 0.299023,0.07388 0.299023,0.161846 0,0.02462 0,0.06684 -0.02463,0.172352 -0.007,0.01759 -0.01054,0.02816 -0.01054,0.0387 0,0.01759 0.01407,0.0387 0.04573,0.0387 0.02815,0 0.03869,-0.01759 0.05276,-0.07037 l 0.200524,-0.823187 c 0,-0.0211 -0.01759,-0.03869 -0.04222,-0.03869 -0.03166,0 -0.0387,0.0211 -0.04925,0.06331 -0.07388,0.267362 -0.13719,0.348284 -0.460843,0.348284 H 90.53552 l 0.211069,-0.847818 c 0.03166,-0.123116 0.03519,-0.137189 0.189966,-0.137189 h 0.496032 c 0.429182,0 0.534723,0.102013 0.534723,0.39049 0,0.08443 0,0.09146 -0.01409,0.186439 0,0.02112 -0.0035,0.04575 -0.0035,0.06332 0,0.01759 0.01054,0.04222 0.04221,0.04222 0.0387,0 0.04222,-0.02112 0.04926,-0.08795 l 0.07034,-0.608603 c 0.01057,-0.09497 -0.007,-0.09497 -0.09497,-0.09497 h -1.776533 c -0.07037,0 -0.105543,0 -0.105543,0.07035 0,0.0387 0.03166,0.0387 0.0985,0.0387 0.130149,0 0.228654,0 0.228654,0.06332 0,0.01406 0,0.0211 -0.01759,0.08444 l -0.464368,1.860959 c -0.03517,0.137203 -0.04221,0.165338 -0.320119,0.165338 -0.0598,0 -0.09851,0 -0.09851,0.06684 0,0.04221 0.03167,0.04221 0.09851,0.04221 h 1.825784 c 0.08092,0 0.08442,-0.0035 0.109056,-0.0598 L 91.91805,41.14029"
         id="path6031"
         style="stroke-width:0.00126898" />
      <path
         d="m 92.61821,41.073453 c 0.02113,-0.524178 0.31661,-0.612131 0.436237,-0.612131 0.362332,0 0.397508,0.474916 0.397508,0.612131 z m -0.0035,0.07385 h 0.98149 c 0.0774,0 0.08794,0 0.08794,-0.07385 0,-0.348284 -0.189966,-0.689513 -0.629693,-0.689513 -0.408079,0 -0.731719,0.362332 -0.731719,0.802071 0,0.471401 0.369362,0.812642 0.773938,0.812642 0.429169,0 0.587474,-0.39049 0.587474,-0.457327 0,-0.03518 -0.02813,-0.04222 -0.04572,-0.04222 -0.03167,0 -0.0387,0.0211 -0.04575,0.04926 -0.123104,0.362328 -0.43974,0.362328 -0.474916,0.362328 -0.175893,0 -0.31661,-0.105543 -0.397508,-0.235697 -0.105541,-0.16885 -0.105541,-0.401036 -0.105541,-0.527693"
         id="path6033"
         style="stroke-width:0.00126898" />
      <path
         d="m 94.305369,38.990511 c 0,-0.07133 -0.05906,-0.140197 -0.142684,-0.140197 -0.0738,0 -0.140209,0.05903 -0.140209,0.140197 0,0.08856 0.07133,0.142684 0.140209,0.142684 0.07872,0 0.142684,-0.06151 0.142684,-0.142684 z m -0.373892,0.459993 v 0.08855 c 0.154943,0 0.177099,0.01477 0.177099,0.135299 v 0.639553 c 0,0.105782 -0.02461,0.105782 -0.184497,0.105782 v 0.08855 c 0.0049,0 0.177124,-0.0098 0.275508,-0.0098 0.08609,0 0.174637,0.0025 0.260737,0.0098 v -0.08855 c -0.142671,0 -0.167276,0 -0.167276,-0.10332 v -0.892905 l -0.361571,0.02704"
         id="path6035"
         style="stroke-width:0.00126898" />
      <path
         d="m 96.262048,39.598099 c 0,-0.0738 -0.03198,-0.174637 -0.132824,-0.174637 -0.05905,0 -0.125465,0.07378 -0.125465,0.135285 0,0.08116 0.132837,0.09839 0.132837,0.265649 0,0.157429 -0.157429,0.511653 -0.432938,0.511653 -0.118066,0 -0.216462,-0.08118 -0.250902,-0.189408 0.03199,-0.05411 0.09101,-0.223836 0.09101,-0.287805 0,-0.0369 -0.02213,-0.0738 -0.06394,-0.0738 -0.125451,0 -0.135299,0.265674 -0.135299,0.351774 -0.06887,0.08855 -0.191857,0.199243 -0.351748,0.199243 -0.132824,0 -0.231234,-0.120528 -0.231234,-0.285343 0,-0.285343 0.253377,-0.523949 0.253377,-0.560851 0,-0.0295 -0.02461,-0.05656 -0.05167,-0.05656 -0.02458,0 -0.03935,0.01228 -0.05656,0.03444 -0.03199,0.03689 -0.06397,0.09101 -0.09347,0.140197 -0.08609,0.147595 -0.147595,0.356685 -0.147595,0.533784 0,0.196793 0.07872,0.391125 0.305012,0.391125 0.164803,0 0.307487,-0.108244 0.396036,-0.241068 0.04674,0.147582 0.154968,0.238606 0.31241,0.238606 0.432913,0 0.58297,-0.728115 0.58297,-0.932281"
         id="path6037"
         style="stroke-width:0.00126898" />
      <path
         d="m 97.044894,39.536591 h 0.250903 c 0.04674,0 0.07872,0 0.07872,-0.05411 0,-0.03444 -0.03198,-0.03444 -0.0738,-0.03444 h -0.233683 l 0.09101,-0.364058 c 0.0024,-0.0123 0.0074,-0.02458 0.0074,-0.03442 0,-0.04429 -0.03444,-0.07873 -0.08363,-0.07873 -0.06151,0 -0.09841,0.04183 -0.115617,0.105769 -0.01723,0.06151 0.01475,-0.05657 -0.09347,0.371431 h -0.250915 c -0.04674,0 -0.0787,0 -0.0787,0.05413 0,0.03442 0.0295,0.03442 0.07378,0.03442 h 0.233696 l -0.145146,0.580546 c -0.01475,0.06148 -0.03688,0.150031 -0.03688,0.18201 0,0.14512 0.12299,0.233695 0.263199,0.233695 0.273047,0 0.428002,-0.344389 0.428002,-0.376367 0,-0.03196 -0.03197,-0.03196 -0.03936,-0.03196 -0.0295,0 -0.03195,0.0049 -0.05165,0.04674 -0.06888,0.154968 -0.194331,0.292716 -0.329617,0.292716 -0.05165,0 -0.08609,-0.03198 -0.08609,-0.120541 0,-0.02461 0.0098,-0.07625 0.01475,-0.100833 l 0.177124,-0.705997"
         id="path6039"
         style="stroke-width:0.00126898" />
    </g>
    <g
       id="g543"
       transform="translate(-8.075691,-28.6558)">
      <path
         d="m 100.16896,41.14029 c 0.007,-0.01761 0.0176,-0.04222 0.0176,-0.04925 0,-0.0035 0,-0.0387 -0.0422,-0.0387 -0.0317,0 -0.0387,0.02112 -0.0457,0.04221 -0.228685,0.520663 -0.358844,0.756353 -0.960404,0.756353 h -0.513607 c -0.04925,0 -0.05628,0 -0.07741,-0.0035 -0.03516,-0.0035 -0.04572,-0.007 -0.04572,-0.03517 0,-0.01055 0,-0.01759 0.01759,-0.0809 l 0.239228,-0.960402 h 0.348259 c 0.299023,0 0.299023,0.07388 0.299023,0.161846 0,0.02462 0,0.06684 -0.02463,0.172352 -0.007,0.01759 -0.01055,0.02816 -0.01055,0.0387 0,0.01759 0.01407,0.0387 0.04573,0.0387 0.02815,0 0.03869,-0.01759 0.05276,-0.07037 l 0.200524,-0.823187 c 0,-0.0211 -0.01759,-0.03869 -0.04222,-0.03869 -0.03166,0 -0.0387,0.0211 -0.04925,0.06331 -0.07388,0.267362 -0.13719,0.348284 -0.460843,0.348284 h -0.33071 l 0.211069,-0.847818 c 0.03166,-0.123116 0.03519,-0.137189 0.189966,-0.137189 h 0.496032 c 0.429183,0 0.534723,0.102013 0.534723,0.39049 0,0.08443 0,0.09146 -0.0141,0.186439 0,0.02112 -0.004,0.04575 -0.004,0.06332 0,0.01759 0.0105,0.04222 0.0422,0.04222 0.0387,0 0.0422,-0.02112 0.0493,-0.08795 l 0.0703,-0.608603 c 0.0106,-0.09497 -0.007,-0.09497 -0.095,-0.09497 h -1.776535 c -0.07036,0 -0.105541,0 -0.105541,0.07035 0,0.0387 0.03166,0.0387 0.0985,0.0387 0.130159,0 0.228658,0 0.228658,0.06332 0,0.01406 0,0.0211 -0.01759,0.08444 l -0.46437,1.860959 c -0.03516,0.137203 -0.04221,0.165338 -0.320113,0.165338 -0.05981,0 -0.09851,0 -0.09851,0.06684 0,0.04221 0.03167,0.04221 0.09851,0.04221 h 1.825783 c 0.08092,0 0.08442,-0.0035 0.109056,-0.0598 l 0.323642,-0.759859"
         id="path6041"
         style="stroke-width:0.00126898" />
      <path
         d="m 100.76287,41.925726 c 0,-0.206629 0.0959,-0.45507 0.32961,-0.45507 -0.0221,0.01723 -0.0418,0.04921 -0.0418,0.08857 0,0.08115 0.0639,0.11313 0.11069,0.11313 0.059,0 0.11315,-0.03935 0.11315,-0.11313 0,-0.08365 -0.0787,-0.15743 -0.19432,-0.15743 -0.12299,0 -0.25829,0.07625 -0.33207,0.263187 h -0.002 v -0.263187 l -0.35175,0.02704 v 0.08855 c 0.16482,0 0.18449,0.01723 0.18449,0.13776 v 0.63709 c 0,0.105783 -0.0246,0.105783 -0.18449,0.105783 v 0.08855 c 0.0123,0 0.17957,-0.0098 0.28044,-0.0098 0.10575,0 0.214,0.0049 0.31975,0.0098 v -0.08855 h -0.0492 c -0.18202,0 -0.18202,-0.02707 -0.18202,-0.1107 v -0.3616"
         id="path6043"
         style="stroke-width:0.00126898" />
      <path
         d="m 101.89006,42.447218 c 0,0.135285 -0.0246,0.292718 -0.19188,0.450151 -0.01,0.0098 -0.0172,0.01721 -0.0172,0.02952 0,0.01721 0.0197,0.03444 0.0344,0.03444 0.0344,0 0.24354,-0.196791 0.24354,-0.489509 0,-0.152516 -0.059,-0.268131 -0.17221,-0.268131 -0.0812,0 -0.1402,0.06396 -0.1402,0.140222 0,0.0787 0.0566,0.142661 0.14266,0.142661 0.059,0 0.0984,-0.03936 0.10087,-0.03936"
         id="path6045"
         style="stroke-width:0.00126898" />
      <path
         d="m 103.47525,41.70189 c 0,-0.270585 -0.032,-0.464904 -0.14505,-0.637092 -0.0763,-0.113155 -0.22879,-0.211564 -0.42561,-0.211564 -0.57066,0 -0.57066,0.671557 -0.57066,0.848656 0,0.177102 0,0.833879 0.57066,0.833879 0.57066,0 0.57066,-0.656777 0.57066,-0.833879 z m -0.57066,0.765017 c -0.1132,0 -0.26319,-0.06642 -0.31243,-0.268132 -0.0344,-0.145139 -0.0344,-0.346827 -0.0344,-0.528864 0,-0.17956 0,-0.366519 0.0369,-0.501805 0.0516,-0.194332 0.209,-0.245979 0.30989,-0.245979 0.13286,0 0.26077,0.08116 0.30506,0.223835 0.0393,0.132837 0.0418,0.309949 0.0418,0.523949 0,0.182037 0,0.364056 -0.032,0.51903 -0.0491,0.223836 -0.21649,0.277966 -0.31483,0.277966"
         id="path6047"
         style="stroke-width:0.00126898" />
    </g>
    <g
       id="g537"
       transform="translate(-14.180552,-19.157529)">
      <path
         d="m 106.27398,41.14029 c 0.007,-0.01761 0.0176,-0.04222 0.0176,-0.04925 0,-0.0035 0,-0.0387 -0.0423,-0.0387 -0.0316,0 -0.0387,0.02112 -0.0457,0.04221 -0.22867,0.520663 -0.35887,0.756353 -0.96036,0.756353 h -0.51369 c -0.0492,0 -0.0562,0 -0.0774,-0.0035 -0.0352,-0.0035 -0.0457,-0.007 -0.0457,-0.03517 0,-0.01055 0,-0.01759 0.0176,-0.0809 l 0.2392,-0.960402 h 0.34821 c 0.2991,0 0.2991,0.07388 0.2991,0.161846 0,0.02462 0,0.06684 -0.0246,0.172352 -0.007,0.01759 -0.0107,0.02816 -0.0107,0.0387 0,0.01759 0.0141,0.0387 0.0458,0.0387 0.0282,0 0.0387,-0.01759 0.0528,-0.07037 l 0.2005,-0.823187 c 0,-0.0211 -0.0176,-0.03869 -0.0423,-0.03869 -0.0316,0 -0.0387,0.0211 -0.0492,0.06331 -0.0739,0.267362 -0.13718,0.348284 -0.46089,0.348284 h -0.33057 l 0.21103,-0.847818 c 0.0316,-0.123116 0.0351,-0.137189 0.18996,-0.137189 h 0.49605 c 0.42917,0 0.53462,0.102013 0.53462,0.39049 0,0.08443 0,0.09146 -0.014,0.186439 0,0.02112 -0.004,0.04575 -0.004,0.06332 0,0.01759 0.0105,0.04222 0.0422,0.04222 0.0387,0 0.0421,-0.02112 0.0492,-0.08795 l 0.0703,-0.608603 c 0.0105,-0.09497 -0.007,-0.09497 -0.0949,-0.09497 h -1.77657 c -0.0704,0 -0.10558,0 -0.10558,0.07035 0,0.0387 0.0317,0.0387 0.0985,0.0387 0.1302,0 0.22867,0 0.22867,0.06332 0,0.01406 0,0.0211 -0.0175,0.08444 l -0.46444,1.860959 c -0.0352,0.137203 -0.0421,0.165338 -0.32004,0.165338 -0.0599,0 -0.0986,0 -0.0986,0.06684 0,0.04221 0.0317,0.04221 0.0986,0.04221 h 1.82581 c 0.0808,0 0.0844,-0.0035 0.109,-0.0598 l 0.32359,-0.759859"
         id="path6049"
         style="stroke-width:0.00126898" />
      <path
         d="m 106.86672,41.925726 c 0,-0.206629 0.0958,-0.45507 0.32956,-0.45507 -0.0222,0.01723 -0.0419,0.04921 -0.0419,0.08857 0,0.08115 0.064,0.11313 0.11078,0.11313 0.059,0 0.11307,-0.03935 0.11307,-0.11313 0,-0.08365 -0.0787,-0.15743 -0.19428,-0.15743 -0.12297,0 -0.25824,0.07625 -0.33209,0.263187 h -0.002 v -0.263187 l -0.35177,0.02704 v 0.08855 c 0.16484,0 0.18451,0.01723 0.18451,0.13776 v 0.63709 c 0,0.105783 -0.0246,0.105783 -0.18451,0.105783 v 0.08855 c 0.0123,0 0.17956,-0.0098 0.28045,-0.0098 0.1057,0 0.21395,0.0049 0.31978,0.0098 v -0.08855 h -0.0492 c -0.18197,0 -0.18197,-0.02707 -0.18197,-0.1107 v -0.3616"
         id="path6051"
         style="stroke-width:0.00126898" />
      <path
         d="m 107.99383,42.447218 c 0,0.135285 -0.0246,0.292718 -0.19187,0.450151 -0.01,0.0098 -0.0171,0.01721 -0.0171,0.02952 0,0.01721 0.0197,0.03444 0.0344,0.03444 0.0344,0 0.24352,-0.196791 0.24352,-0.489509 0,-0.152516 -0.059,-0.268131 -0.1722,-0.268131 -0.0812,0 -0.14023,0.06396 -0.14023,0.140222 0,0.0787 0.0566,0.142661 0.14264,0.142661 0.0591,0 0.0985,-0.03936 0.10088,-0.03936"
         id="path6053"
         style="stroke-width:0.00126898" />
      <path
         d="m 109.13515,40.922127 c 0,-0.06643 -0.005,-0.06889 -0.0738,-0.06889 -0.15736,0.154981 -0.3812,0.157442 -0.48209,0.157442 v 0.08855 c 0.059,0 0.22144,0 0.35671,-0.06887 v 1.25451 c 0,0.08117 0,0.113158 -0.24605,0.113158 h -0.0934 v 0.08855 c 0.0443,-0.0025 0.34681,-0.0098 0.4378,-0.0098 0.0763,0 0.38615,0.0074 0.44033,0.0098 v -0.08855 h -0.0935 c -0.24593,0 -0.24593,-0.03198 -0.24593,-0.113158 v -1.362741"
         id="path6055"
         style="stroke-width:0.00126898" />
    </g>
    <g
       id="g531"
       transform="translate(-20.284442,-9.9812331)">
      <path
         d="m 112.37778,41.14029 c 0.007,-0.01761 0.0176,-0.04222 0.0176,-0.04925 0,-0.0035 0,-0.0387 -0.0423,-0.0387 -0.0316,0 -0.0387,0.02112 -0.0457,0.04221 -0.22867,0.520663 -0.35886,0.756353 -0.96036,0.756353 h -0.51368 c -0.0492,0 -0.0562,0 -0.0774,-0.0035 -0.0352,-0.0035 -0.0457,-0.007 -0.0457,-0.03517 0,-0.01055 0,-0.01759 0.0176,-0.0809 l 0.2392,-0.960402 h 0.34821 c 0.29909,0 0.29909,0.07388 0.29909,0.161846 0,0.02462 0,0.06684 -0.0246,0.172352 -0.007,0.01759 -0.0107,0.02816 -0.0107,0.0387 0,0.01759 0.0141,0.0387 0.0458,0.0387 0.0282,0 0.0387,-0.01759 0.0528,-0.07037 l 0.2005,-0.823187 c 0,-0.0211 -0.0176,-0.03869 -0.0423,-0.03869 -0.0316,0 -0.0387,0.0211 -0.0492,0.06331 -0.0739,0.267362 -0.13717,0.348284 -0.46089,0.348284 h -0.33057 l 0.21103,-0.847818 c 0.0316,-0.123116 0.0352,-0.137189 0.18997,-0.137189 h 0.49604 c 0.42917,0 0.53462,0.102013 0.53462,0.39049 0,0.08443 0,0.09146 -0.014,0.186439 0,0.02112 -0.004,0.04575 -0.004,0.06332 0,0.01759 0.0105,0.04222 0.0423,0.04222 0.0387,0 0.0421,-0.02112 0.0492,-0.08795 l 0.0703,-0.608603 c 0.0105,-0.09497 -0.007,-0.09497 -0.0949,-0.09497 h -1.77658 c -0.0704,0 -0.10557,0 -0.10557,0.07035 0,0.0387 0.0317,0.0387 0.0985,0.0387 0.1302,0 0.22867,0 0.22867,0.06332 0,0.01406 0,0.0211 -0.0175,0.08444 l -0.46445,1.860959 c -0.0352,0.137203 -0.0421,0.165338 -0.32004,0.165338 -0.0599,0 -0.0986,0 -0.0986,0.06684 0,0.04221 0.0317,0.04221 0.0986,0.04221 h 1.82581 c 0.0808,0 0.0844,-0.0035 0.10901,-0.0598 l 0.32359,-0.759859"
         id="path6057"
         style="stroke-width:0.00126898" />
      <path
         d="m 112.97052,41.925726 c 0,-0.206629 0.0958,-0.45507 0.32955,-0.45507 -0.0222,0.01723 -0.0419,0.04921 -0.0419,0.08857 0,0.08115 0.064,0.11313 0.11079,0.11313 0.059,0 0.11306,-0.03935 0.11306,-0.11313 0,-0.08365 -0.0787,-0.15743 -0.19428,-0.15743 -0.12296,0 -0.25824,0.07625 -0.33209,0.263187 h -0.002 v -0.263187 l -0.35176,0.02704 v 0.08855 c 0.16484,0 0.18451,0.01723 0.18451,0.13776 v 0.63709 c 0,0.105783 -0.0246,0.105783 -0.18451,0.105783 v 0.08855 c 0.0123,0 0.17956,-0.0098 0.28044,-0.0098 0.10571,0 0.21395,0.0049 0.31979,0.0098 v -0.08855 h -0.0492 c -0.18197,0 -0.18197,-0.02707 -0.18197,-0.1107 v -0.3616"
         id="path6059"
         style="stroke-width:0.00126898" />
      <path
         d="m 114.09889,42.447218 c 0,0.135285 -0.0246,0.292718 -0.19187,0.450151 -0.01,0.0098 -0.0171,0.01721 -0.0171,0.02952 0,0.01721 0.0197,0.03444 0.0344,0.03444 0.0344,0 0.24352,-0.196791 0.24352,-0.489509 0,-0.152516 -0.059,-0.268131 -0.1722,-0.268131 -0.0812,0 -0.14022,0.06396 -0.14022,0.140222 0,0.0787 0.0566,0.142661 0.14263,0.142661 0.0591,0 0.0985,-0.03936 0.10088,-0.03936"
         id="path6061"
         style="stroke-width:0.00126898" />
      <path
         d="m 115.65707,42.038884 h -0.0836 c -0.007,0.05411 -0.032,0.19925 -0.064,0.223856 -0.0197,0.01475 -0.20913,0.01475 -0.24352,0.01475 h -0.45264 c 0.25836,-0.228773 0.3444,-0.297635 0.49198,-0.41325 0.1821,-0.145144 0.35176,-0.297637 0.35176,-0.531333 0,-0.297626 -0.26077,-0.479674 -0.5756,-0.479674 -0.30494,0 -0.51166,0.214026 -0.51166,0.440323 0,0.125452 0.10584,0.137748 0.13045,0.137748 0.059,0 0.13033,-0.04183 0.13033,-0.130375 0,-0.04427 -0.0173,-0.130362 -0.14517,-0.130362 0.0763,-0.17465 0.24351,-0.228759 0.35912,-0.228759 0.24605,0 0.37397,0.191857 0.37397,0.391099 0,0.214014 -0.15254,0.38374 -0.23121,0.472286 l -0.59287,0.585455 c -0.0246,0.02213 -0.0246,0.02705 -0.0246,0.09593 h 1.01354 l 0.0737,-0.447692"
         id="path6063"
         style="stroke-width:0.00126898" />
    </g>
    <g
       id="g525"
       transform="translate(-37.671107,-28.333824)">
      <path
         d="m 116.30057,41.752391 c -0.0107,0.05276 -0.0317,0.13368 -0.0317,0.151268 0,0.06333 0.0492,0.09499 0.10203,0.09499 0.0422,0 0.10557,-0.02816 0.13019,-0.0985 0.007,-0.01408 0.12665,-0.492498 0.14073,-0.555832 0.028,-0.116099 0.0914,-0.362332 0.11256,-0.457328 0.0141,-0.04572 0.11256,-0.21107 0.19695,-0.288452 0.0282,-0.02463 0.13019,-0.116099 0.28146,-0.116099 0.0915,0 0.14428,0.04222 0.14771,0.04222 -0.10546,0.01759 -0.18286,0.102013 -0.18286,0.193481 0,0.05629 0.0387,0.12313 0.13362,0.12313 0.0951,0 0.19352,-0.08092 0.19352,-0.207568 0,-0.123129 -0.11256,-0.22867 -0.29199,-0.22867 -0.22867,0 -0.38349,0.172391 -0.45024,0.270889 -0.0282,-0.158305 -0.15481,-0.270889 -0.32016,-0.270889 -0.1618,0 -0.22867,0.137215 -0.2604,0.200524 -0.0633,0.119615 -0.109,0.330684 -0.109,0.341229 0,0.0352 0.0352,0.0352 0.0423,0.0352 0.0351,0 0.0387,-0.0035 0.0598,-0.08092 0.0598,-0.249773 0.13019,-0.418624 0.25684,-0.418624 0.0598,0 0.109,0.02813 0.109,0.16182 0,0.07388 -0.0105,0.112584 -0.0562,0.295508 l -0.20406,0.812625"
         id="path6065"
         style="stroke-width:0.00126898" />
      <path
         d="m 118.40124,40.922127 c 0,-0.06643 -0.005,-0.06889 -0.0739,-0.06889 -0.15735,0.154981 -0.3812,0.157442 -0.48209,0.157442 v 0.08855 c 0.059,0 0.22144,0 0.35671,-0.06887 v 1.25451 c 0,0.08117 0,0.113158 -0.24605,0.113158 h -0.0934 v 0.08855 c 0.0443,-0.0025 0.34681,-0.0098 0.4378,-0.0098 0.0763,0 0.38615,0.0074 0.44034,0.0098 v -0.08855 h -0.0935 c -0.24593,0 -0.24593,-0.03198 -0.24593,-0.113158 v -1.362741"
         id="path6067"
         style="stroke-width:0.00126898" />
    </g>
    <g
       id="g521"
       transform="translate(-69.868635,-28.333825)">
      <g
         id="g6755">
        <path
           d="m 119.46287,41.752391 c -0.0107,0.05276 -0.0317,0.13368 -0.0317,0.151268 0,0.06333 0.0492,0.09499 0.10202,0.09499 0.0423,0 0.10558,-0.02816 0.1302,-0.0985 0.007,-0.01408 0.12665,-0.492498 0.14073,-0.555832 0.028,-0.116099 0.0914,-0.362332 0.11256,-0.457328 0.0141,-0.04572 0.11256,-0.21107 0.19695,-0.288452 0.0282,-0.02463 0.13019,-0.116099 0.28146,-0.116099 0.0915,0 0.14428,0.04222 0.1477,0.04222 -0.10545,0.01759 -0.18286,0.102013 -0.18286,0.193481 0,0.05629 0.0387,0.12313 0.13363,0.12313 0.095,0 0.19352,-0.08092 0.19352,-0.207568 0,-0.123129 -0.11256,-0.22867 -0.29199,-0.22867 -0.22868,0 -0.38349,0.172391 -0.45024,0.270889 -0.0282,-0.158305 -0.15481,-0.270889 -0.32016,-0.270889 -0.1618,0 -0.22867,0.137215 -0.2604,0.200524 -0.0633,0.119615 -0.109,0.330684 -0.109,0.341229 0,0.0352 0.0352,0.0352 0.0423,0.0352 0.0352,0 0.0387,-0.0035 0.0598,-0.08092 0.0598,-0.249773 0.1302,-0.418624 0.25684,-0.418624 0.0598,0 0.10901,0.02813 0.10901,0.16182 0,0.07388 -0.0105,0.112584 -0.0562,0.295508 l -0.20405,0.812625"
           id="path6069"
           style="stroke-width:0.00126898" />
        <path
           d="m 121.98167,42.038884 h -0.0836 c -0.007,0.05411 -0.032,0.19925 -0.064,0.223856 -0.0197,0.01475 -0.20913,0.01475 -0.24352,0.01475 h -0.45264 c 0.25836,-0.228773 0.3444,-0.297635 0.49198,-0.41325 0.1821,-0.145144 0.35176,-0.297637 0.35176,-0.531333 0,-0.297626 -0.26077,-0.479674 -0.57561,-0.479674 -0.30493,0 -0.51165,0.214026 -0.51165,0.440323 0,0.125452 0.10583,0.137748 0.13045,0.137748 0.059,0 0.13032,-0.04183 0.13032,-0.130375 0,-0.04427 -0.0173,-0.130362 -0.14517,-0.130362 0.0763,-0.17465 0.24352,-0.228759 0.35912,-0.228759 0.24606,0 0.37397,0.191857 0.37397,0.391099 0,0.214014 -0.15253,0.38374 -0.23121,0.472286 l -0.59286,0.585455 c -0.0246,0.02213 -0.0246,0.02705 -0.0246,0.09593 h 1.01353 l 0.0737,-0.447692"
           id="path6071"
           style="stroke-width:0.00126898" />
      </g>
    </g>
    <path
       d="m 66.044559,51.010866 c 0,-0.0035 0,-0.0387 -0.0458,-0.0387 -0.0528,0 -0.38692,0.03166 -0.44669,0.0387 -0.0282,0.0035 -0.0494,0.02109 -0.0494,0.06684 0,0.04222 0.0317,0.04222 0.0845,0.04222 0.16878,0 0.17589,0.02462 0.17589,0.05979 l -0.0105,0.07035 -0.21116,0.833733 c -0.0633,-0.130147 -0.16522,-0.225143 -0.32359,-0.225143 -0.41165,0 -0.8478,0.517135 -0.8478,1.030755 0,0.330684 0.19352,0.562868 0.46787,0.562868 0.0703,0 0.24631,-0.01408 0.45734,-0.263846 0.0282,0.147755 0.15127,0.263846 0.32017,0.263846 0.12309,0 0.20392,-0.08092 0.26026,-0.193499 0.0598,-0.126639 0.10558,-0.341236 0.10558,-0.348254 0,-0.0352 -0.0317,-0.0352 -0.0423,-0.0352 -0.0352,0 -0.0387,0.01409 -0.0492,0.06334 -0.0598,0.228657 -0.12309,0.436212 -0.26737,0.436212 -0.0949,0 -0.10558,-0.09147 -0.10558,-0.161816 0,-0.08443 0.007,-0.109048 0.0212,-0.168855 z m -0.73183,1.984089 c -0.0175,0.06331 -0.0175,0.07035 -0.0703,0.130146 -0.15481,0.193502 -0.29897,0.249774 -0.39757,0.249774 -0.17588,0 -0.22512,-0.193482 -0.22512,-0.330671 0,-0.175893 0.11256,-0.60859 0.19352,-0.770423 0.10901,-0.207567 0.26738,-0.337714 0.40811,-0.337714 0.22867,0 0.2779,0.288452 0.2779,0.309568 0,0.0211 -0.007,0.04222 -0.0105,0.05981 l -0.17601,0.689513"
       id="path6073"
       style="stroke-width:0.00126898" />
    <text
       xml:space="preserve"
       style="font-size:3.52778px;line-height:1.25;font-family:'Helvetica Neue';-inkscape-font-specification:'Helvetica Neue, Normal';stroke-width:0.264583"
       x="91.550392"
       y="40.379414"
       id="text2588-1"><tspan
         sodipodi:role="line"
         id="tspan2586-8"
         style="font-size:3.52778px;stroke-width:0.264583"
         x="91.550392"
         y="40.379414">...</tspan></text>
  </g>
</svg>
